<svg width="196" height="196" viewBox="0 0 196 196" fill="none" xmlns="http://www.w3.org/2000/svg">
<path d="M2.6188 106C1.2145 103.568 0.475204 100.809 0.475204 98C0.475204 95.1914 1.2145 92.4323 2.6188 90L43.3812 19.3975C44.7855 16.9652 46.8053 14.9453 49.2376 13.541C51.6699 12.1368 54.429 11.3975 57.2376 11.3975H138.762C141.571 11.3975 144.33 12.1368 146.762 13.541C149.195 14.9453 151.215 16.9652 152.619 19.3975L193.381 90C194.785 92.4323 195.525 95.1914 195.525 98C195.525 100.809 194.785 103.568 193.381 106L152.619 176.603C151.215 179.035 149.195 181.055 146.762 182.459C144.33 183.863 141.571 184.603 138.762 184.603H57.2376C54.429 184.603 51.6699 183.863 49.2376 182.459C46.8053 181.055 44.7855 179.035 43.3812 176.603" fill="#20BE86"/>
</svg>
